<?xml version="1.0" encoding="UTF-8"?>
<svg id="Layer_2" data-name="Layer 2" xmlns="http://www.w3.org/2000/svg" viewBox="0 0 544.66 200.45">
  <defs>
    <style>
      .cls-1 {
        font-family: Montserrat-SemiBold, Montserrat;
        font-size: 64.63px;
        font-weight: 600;
      }

      .cls-1, .cls-2 {
        fill: #0867c5;
      }

      .cls-3 {
        letter-spacing: -.01em;
      }

      .cls-4 {
        letter-spacing: -.05em;
      }
    </style>
  </defs>
  <g id="Layer_1-2" data-name="Layer 1">
    <g>
      <polyline class="cls-2" points="104.5 100.09 121.02 73.6 146.02 33.5 177.6 33.5 177.63 33.5 177.62 33.48 177.6 33.5 152.23 74.19 203.62 75.17 177.63 33.5 177.62 33.48 161.83 8.15 156.74 0 166.91 0 156.74 0 166.91 0 183.32 0 188.32 0 183.32 0 188.32 0 191.5 5.1 193.4 8.16 209.21 33.5 235.57 75.78 248.36 96.29 248.36 99.92 248.36 99.92 135.72 100.68 104.5 100.09 121.02 73.6"/>
      <polyline class="cls-2" points="400.8 100.13 417.32 73.64 442.32 33.54 473.9 33.54 473.93 33.54 473.92 33.52 473.9 33.54 448.53 74.23 499.91 75.21 473.93 33.54 473.92 33.52 458.12 8.19 453.04 .04 463.21 .04 453.04 .04 463.21 .04 479.62 .04 484.62 .04 479.62 .04 484.62 .04 487.8 5.14 489.7 8.2 505.51 33.54 531.87 75.82 544.66 96.32 544.66 99.96 544.66 99.96 432.01 100.72 400.8 100.13 417.32 73.64"/>
      <g>
        <rect class="cls-2" x="313.28" y="33.51" width="31.96" height="69.26"/>
        <polygon class="cls-2" points="376.29 .97 362.55 .97 327.98 .97 293.3 .97 257.35 .97 257.35 29.48 257.35 100.76 293.3 100.76 293.3 29.48 356.49 29.48 362.55 35.54 362.55 100.76 393.18 100.76 393.18 66.17 393.18 29.48 393.18 17.86 376.29 .97"/>
      </g>
      <path class="cls-2" d="M83.96,103.26H4.58V31.77h29.78v46.53h41.61l3.41-3.53V29l-3.74-3.88H4.58V0h82.23l18.69,19.35v61.6l-.07.07-21.47,22.23Z"/>
      <text class="cls-1" transform="translate(0 168.24) scale(1.02 1)"><tspan x="0" y="0">KE</tspan><tspan class="cls-3" x="90.42" y="0">N</tspan><tspan class="cls-4" x="141.86" y="0">Y</tspan><tspan x="181.23" y="0">A </tspan></text>
      <text class="cls-1" transform="translate(257.35 170.07) scale(.96 1)"><tspan x="0" y="0">NAIROBI</tspan></text>
    </g>
  </g>
</svg>